# Blender 4.2.2 LTS
# www.blender.org
mtllib fekturo.mtl
o Cylinder
v 0.000000 -0.058935 -1.831432
v 0.000000 0.758178 -1.831432
v 0.915716 -0.058935 -1.586067
v 0.915716 0.758178 -1.586067
v 1.586067 -0.058935 -0.915716
v 1.586067 0.758178 -0.915716
v 1.831432 -0.058935 0.000000
v 1.831432 0.758178 0.000000
v 1.586067 -0.058935 0.915716
v 1.586067 0.758178 0.915716
v 0.915716 -0.058935 1.586067
v 0.915716 0.758178 1.586067
v 0.000000 -0.058935 1.831432
v 0.000000 0.758178 1.831432
v -0.915716 -0.058935 1.586067
v -0.915716 0.758178 1.586067
v -1.586067 -0.058935 0.915716
v -1.586067 0.758178 0.915716
v -1.831432 -0.058935 0.000000
v -1.831432 0.758178 0.000000
v -1.586067 -0.058935 -0.915716
v -1.586067 0.758178 -0.915716
v -0.915716 -0.058935 -1.586067
v -0.915716 0.758178 -1.586067
v 0.694549 1.039385 -1.202994
v 0.000000 1.039385 -1.389098
v 1.202994 1.039385 -0.694549
v 1.389098 1.039385 0.000000
v 1.202994 1.039385 0.694549
v 0.694549 1.039385 1.202994
v 0.000000 1.039385 1.389098
v -0.694549 1.039385 1.202994
v -1.202994 1.039385 0.694549
v -1.389098 1.039385 0.000000
v -1.202994 1.039385 -0.694549
v -0.694549 1.039385 -1.202994
v 0.694549 5.086218 -1.202994
v -0.000000 5.086218 -1.389098
v 1.202994 5.086218 -0.694549
v 1.389098 5.086218 0.000000
v 1.202994 5.086218 0.694549
v 0.694549 5.086218 1.202994
v -0.000000 5.086218 1.389098
v -0.694549 5.086218 1.202994
v -1.202994 5.086218 0.694549
v -1.389098 5.086218 0.000000
v -1.202994 5.086218 -0.694549
v -0.694549 5.086218 -1.202994
v 0.833658 5.350794 -1.443937
v -0.000000 5.350794 -1.667315
v 1.443937 5.350794 -0.833658
v 1.667315 5.350794 0.000000
v 1.443937 5.350794 0.833658
v 0.833658 5.350794 1.443937
v -0.000000 5.350794 1.667315
v -0.833658 5.350794 1.443937
v -1.443937 5.350794 0.833658
v -1.667315 5.350794 0.000000
v -1.443937 5.350794 -0.833658
v -0.833658 5.350794 -1.443937
v 0.833657 6.097353 -1.443937
v -0.000000 6.097353 -1.667315
v 1.443937 6.097353 -0.833658
v 1.667315 6.097353 0.000000
v 1.443937 6.097353 0.833658
v 0.833657 6.097353 1.443937
v -0.000000 6.097353 1.667315
v -0.833658 6.097353 1.443937
v -1.443938 6.097353 0.833658
v -1.667315 6.097353 0.000000
v -1.443938 6.097353 -0.833658
v -0.833658 6.097353 -1.443937
v -0.557425 6.097353 -0.965488
v -0.965488 6.097353 -0.557425
v -1.114849 6.097353 0.000000
v -0.965488 6.097353 0.557425
v -0.557425 6.097353 0.965488
v -0.000000 6.097353 1.114849
v 0.557424 6.097353 0.965488
v 0.965487 6.097353 0.557425
v 1.114849 6.097353 0.000000
v 0.965487 6.097353 -0.557425
v -0.000000 6.097353 -1.114849
v 0.557424 6.097353 -0.965488
v 0.833657 6.693633 -1.443937
v -0.000000 6.693633 -1.667315
v 1.443937 6.693633 -0.833658
v 1.667315 6.693633 0.000000
v 1.443937 6.693633 0.833658
v 0.833657 6.693633 1.443937
v -0.000000 6.693633 1.667315
v -0.833658 6.693633 1.443937
v -1.443938 6.693633 0.833658
v -1.667315 6.693633 0.000000
v -1.443938 6.693633 -0.833658
v -0.833658 6.693633 -1.443937
v -0.557425 6.693633 -0.965488
v -0.965488 6.693633 -0.557425
v -1.114849 6.693633 0.000000
v -0.965488 6.693633 0.557425
v -0.557425 6.693633 0.965488
v -0.000000 6.693633 1.114849
v 0.557424 6.693633 0.965488
v 0.965487 6.693633 0.557425
v 1.114849 6.693633 0.000000
v 0.965487 6.693633 -0.557425
v -0.000000 6.693633 -1.114849
v 0.557424 6.693633 -0.965488
vn 0.2588 -0.0000 -0.9659
vn 0.7071 -0.0000 -0.7071
vn 0.9659 -0.0000 -0.2588
vn 0.9659 -0.0000 0.2588
vn 0.7071 -0.0000 0.7071
vn 0.2588 -0.0000 0.9659
vn -0.2588 -0.0000 0.9659
vn -0.7071 -0.0000 0.7071
vn -0.9659 -0.0000 0.2588
vn -0.9659 -0.0000 -0.2588
vn -0.1423 0.8353 0.5310
vn -0.7071 -0.0000 -0.7071
vn -0.2588 -0.0000 -0.9659
vn -0.0000 -1.0000 -0.0000
vn 0.1423 0.8353 0.5310
vn 0.3887 0.8353 0.3887
vn 0.5310 0.8353 0.1423
vn -0.1423 0.8353 -0.5310
vn 0.1423 0.8353 -0.5310
vn 0.5310 0.8353 -0.1423
vn -0.3887 0.8353 -0.3887
vn 0.3887 0.8353 -0.3887
vn -0.5310 0.8353 -0.1423
vn -0.5310 0.8353 0.1423
vn -0.3887 0.8353 0.3887
vn -0.1816 -0.7126 -0.6777
vn 0.4961 -0.7126 -0.4961
vn -0.6777 -0.7126 0.1816
vn 0.1816 -0.7126 0.6777
vn 0.6777 -0.7126 -0.1816
vn -0.6777 -0.7126 -0.1816
vn -0.1816 -0.7126 0.6777
vn 0.6777 -0.7126 0.1816
vn -0.4961 -0.7126 -0.4961
vn 0.1816 -0.7126 -0.6777
vn -0.4961 -0.7126 0.4961
vn 0.4961 -0.7126 0.4961
vn -0.0000 1.0000 -0.0000
vn -0.5000 -0.0000 0.8660
vn 0.5000 -0.0000 -0.8660
vn 0.8660 -0.0000 -0.5000
vn -0.0000 -0.0000 1.0000
vn -1.0000 -0.0000 -0.0000
vn -0.8660 -0.0000 0.5000
vn -0.5000 -0.0000 -0.8660
vn 1.0000 -0.0000 -0.0000
vn 0.8660 -0.0000 0.5000
vn -0.8660 -0.0000 -0.5000
vn 0.5000 -0.0000 0.8660
vn -0.0000 -0.0000 -1.0000
vt 1.000000 0.500000
vt 1.000000 1.000000
vt 0.916667 1.000000
vt 0.916667 0.500000
vt 0.833333 1.000000
vt 0.833333 0.500000
vt 0.750000 1.000000
vt 0.750000 0.500000
vt 0.666667 1.000000
vt 0.666667 0.500000
vt 0.583333 1.000000
vt 0.583333 0.500000
vt 0.500000 1.000000
vt 0.500000 0.500000
vt 0.416667 1.000000
vt 0.416667 0.500000
vt 0.333333 1.000000
vt 0.333333 0.500000
vt 0.250000 1.000000
vt 0.250000 0.500000
vt 0.166667 1.000000
vt 0.166667 0.500000
vt 0.083333 1.000000
vt 0.083333 0.500000
vt 0.000000 1.000000
vt 0.000000 0.500000
vt 0.750000 0.490000
vt 0.870000 0.457846
vt 0.957846 0.370000
vt 0.990000 0.250000
vt 0.957846 0.130000
vt 0.870000 0.042154
vt 0.750000 0.010000
vt 0.630000 0.042154
vt 0.542154 0.130000
vt 0.510000 0.250000
vt 0.542154 0.370000
vt 0.630000 0.457846
vt 0.370000 0.457846
vt 0.250000 0.490000
vt 0.130000 0.457846
vt 0.042154 0.370000
vt 0.010000 0.250000
vt 0.042154 0.130000
vt 0.130000 0.042154
vt 0.250000 0.010000
vt 0.370000 0.042154
vt 0.457846 0.130000
vt 0.490000 0.250000
vt 0.457846 0.370000
vt 0.000000 0.000000
s 0
f 1/1/1 2/2/1 4/3/1 3/4/1
f 3/4/2 4/3/2 6/5/2 5/6/2
f 5/6/3 6/5/3 8/7/3 7/8/3
f 7/8/4 8/7/4 10/9/4 9/10/4
f 9/10/5 10/9/5 12/11/5 11/12/5
f 11/12/6 12/11/6 14/13/6 13/14/6
f 13/14/7 14/13/7 16/15/7 15/16/7
f 15/16/8 16/15/8 18/17/8 17/18/8
f 17/18/9 18/17/9 20/19/9 19/20/9
f 19/20/10 20/19/10 22/21/10 21/22/10
f 16/15/11 14/13/11 31/13/11 32/15/11
f 21/22/12 22/21/12 24/23/12 23/24/12
f 23/24/13 24/23/13 2/25/13 1/26/13
f 1/27/14 3/28/14 5/29/14 7/30/14 9/31/14 11/32/14 13/33/14 15/34/14 17/35/14 19/36/14 21/37/14 23/38/14
f 27/5/2 25/3/2 37/3/2 39/5/2
f 14/13/15 12/11/15 30/11/15 31/13/15
f 12/11/16 10/9/16 29/9/16 30/11/16
f 10/9/17 8/7/17 28/7/17 29/9/17
f 2/25/18 24/23/18 36/23/18 26/25/18
f 4/3/19 2/2/19 26/2/19 25/3/19
f 8/7/20 6/5/20 27/5/20 28/7/20
f 24/23/21 22/21/21 35/21/21 36/23/21
f 6/5/22 4/3/22 25/3/22 27/5/22
f 22/21/23 20/19/23 34/19/23 35/21/23
f 20/19/24 18/17/24 33/17/24 34/19/24
f 18/17/25 16/15/25 32/15/25 33/17/25
f 38/25/26 48/23/26 60/23/26 50/25/26
f 34/19/9 33/17/9 45/17/9 46/19/9
f 31/13/6 30/11/6 42/11/6 43/13/6
f 28/7/3 27/5/3 39/5/3 40/7/3
f 35/21/10 34/19/10 46/19/10 47/21/10
f 32/15/7 31/13/7 43/13/7 44/15/7
f 29/9/4 28/7/4 40/7/4 41/9/4
f 36/23/12 35/21/12 47/21/12 48/23/12
f 25/3/1 26/2/1 38/2/1 37/3/1
f 33/17/8 32/15/8 44/15/8 45/17/8
f 30/11/5 29/9/5 41/9/5 42/11/5
f 26/25/13 36/23/13 48/23/13 38/25/13
f 54/11/5 53/9/5 65/9/5 66/11/5
f 39/5/27 37/3/27 49/3/27 51/5/27
f 46/19/28 45/17/28 57/17/28 58/19/28
f 43/13/29 42/11/29 54/11/29 55/13/29
f 40/7/30 39/5/30 51/5/30 52/7/30
f 47/21/31 46/19/31 58/19/31 59/21/31
f 44/15/32 43/13/32 55/13/32 56/15/32
f 41/9/33 40/7/33 52/7/33 53/9/33
f 48/23/34 47/21/34 59/21/34 60/23/34
f 37/3/35 38/2/35 50/2/35 49/3/35
f 45/17/36 44/15/36 56/15/36 57/17/36
f 42/11/37 41/9/37 53/9/37 54/11/37
f 61/39/38 62/40/38 72/41/38 71/42/38 70/43/38 69/44/38 68/45/38 67/46/38 66/47/38 65/48/38 64/49/38 63/50/38
f 50/25/13 60/23/13 72/23/13 62/25/13
f 51/5/2 49/3/2 61/3/2 63/5/2
f 58/19/9 57/17/9 69/17/9 70/19/9
f 55/13/6 54/11/6 66/11/6 67/13/6
f 52/7/3 51/5/3 63/5/3 64/7/3
f 59/21/10 58/19/10 70/19/10 71/21/10
f 56/15/7 55/13/7 67/13/7 68/15/7
f 53/9/4 52/7/4 64/7/4 65/9/4
f 60/23/12 59/21/12 71/21/12 72/23/12
f 49/3/1 50/2/1 62/2/1 61/3/1
f 57/17/8 56/15/8 68/15/8 69/17/8
f 70/19/14 71/21/14 74/21/14 75/19/14
f 62/40/14 83/40/14 73/41/14 72/41/14
f 68/15/14 69/17/14 76/17/14 77/15/14
f 67/46/14 78/46/14 79/47/14 66/47/14
f 63/50/14 82/50/14 84/39/14 61/39/14
f 65/48/14 80/48/14 81/49/14 64/49/14
f 77/15/2 76/17/2 100/17/2 101/15/2
f 65/48/39 89/48/39 104/48/39 80/48/39
f 74/21/40 71/21/40 95/21/40 98/21/40
f 78/46/13 102/46/13 103/47/13 79/47/13
f 79/47/41 103/47/41 90/47/41 66/47/41
f 70/19/42 75/19/42 99/19/42 94/19/42
f 80/48/10 104/48/10 105/49/10 81/49/10
f 67/46/43 91/46/43 102/46/43 78/46/43
f 73/41/44 97/41/44 96/41/44 72/41/44
f 82/50/8 106/50/8 108/39/8 84/39/8
f 76/17/45 69/17/45 93/17/45 100/17/45
f 62/40/46 86/40/46 107/40/46 83/40/46
f 68/15/47 77/15/47 101/15/47 92/15/47
f 84/39/48 108/39/48 85/39/48 61/39/48
f 83/40/6 107/40/6 97/41/6 73/41/6
f 63/50/49 87/50/49 106/50/49 82/50/49
f 75/19/4 74/21/4 98/21/4 99/19/4
f 81/49/50 105/49/50 88/49/50 64/49/50
f 90/47/38 103/47/38 102/46/38 91/46/38
f 67/51/6 66/51/6 90/51/6 91/51/6
f 88/49/38 105/49/38 104/48/38 89/48/38
f 65/51/4 64/51/4 88/51/4 89/51/4
f 85/39/38 108/39/38 106/50/38 87/50/38
f 63/51/2 61/51/2 85/51/2 87/51/2
f 62/51/13 72/51/13 96/51/13 86/51/13
f 96/51/38 97/41/38 107/40/38 86/51/38
f 95/51/10 71/51/10 70/51/10 94/51/10
f 95/51/38 94/51/38 99/19/38 98/21/38
f 93/51/8 69/51/8 68/51/8 92/51/8
f 93/51/38 92/51/38 101/15/38 100/17/38
