# Blender 4.2.2 LTS
# www.blender.org
mtllib kuriero.mtl
o Cylinder.001
v 0.000000 0.000000 -1.857565
v 0.000000 0.748545 -1.857565
v 0.928783 0.000000 -1.608699
v 0.928783 0.748545 -1.608699
v 1.608699 0.000000 -0.928783
v 1.608699 0.748545 -0.928783
v 1.857565 0.000000 0.000000
v 1.857565 0.748545 0.000000
v 1.608699 0.000000 0.928783
v 1.608699 0.748545 0.928783
v 0.928783 0.000000 1.608699
v 0.928783 0.748545 1.608699
v 0.000000 0.000000 1.857565
v 0.000000 0.748545 1.857565
v -0.928783 0.000000 1.608699
v -0.928783 0.748545 1.608699
v -1.608699 0.000000 0.928783
v -1.608699 0.748545 0.928783
v -1.857565 0.000000 0.000000
v -1.857565 0.748545 0.000000
v -1.608699 0.000000 -0.928783
v -1.608699 0.748545 -0.928783
v -0.928783 0.000000 -1.608699
v -0.928783 0.748545 -1.608699
v 0.561985 1.041336 -0.973386
v 0.000000 1.041336 -1.123969
v 0.973386 1.041336 -0.561985
v 1.123969 1.041336 -0.000000
v 0.973386 1.041336 0.561985
v 0.561985 1.041336 0.973386
v 0.000000 1.041336 1.123969
v -0.561985 1.041336 0.973386
v -0.973386 1.041336 0.561985
v -1.123969 1.041336 -0.000000
v -0.973386 1.041336 -0.561985
v -0.561985 1.041336 -0.973386
v 0.561985 4.872603 -0.973386
v -0.000000 4.872603 -1.123969
v 0.973386 4.872603 -0.561985
v 1.123969 4.872603 -0.000000
v 0.973386 4.872603 0.561985
v 0.561985 4.872603 0.973386
v -0.000000 4.872603 1.123969
v -0.561985 4.872603 0.973386
v -0.973386 4.872603 0.561985
v -1.123969 4.872603 -0.000000
v -0.973386 4.872603 -0.561985
v -0.561985 4.872603 -0.973386
v 0.431395 5.181045 -0.747199
v -0.000000 5.181045 -0.862791
v 0.747199 5.181045 -0.431395
v 0.862791 5.181045 0.000000
v 0.747199 5.181045 0.431395
v 0.431395 5.181045 0.747199
v -0.000000 5.181045 0.862791
v -0.431395 5.181045 0.747199
v -0.747199 5.181045 0.431395
v -0.862791 5.181045 0.000000
v -0.747199 5.181045 -0.431395
v -0.431395 5.181045 -0.747199
v 0.528972 5.513924 -0.916206
v -0.000000 5.513924 -1.057944
v 0.916206 5.513924 -0.528972
v 1.057944 5.513924 0.000000
v 0.916206 5.513924 0.528972
v 0.528972 5.513924 0.916206
v -0.000000 5.513924 1.057944
v -0.528972 5.513924 0.916206
v -0.916206 5.513924 0.528972
v -1.057944 5.513924 0.000000
v -0.916206 5.513924 -0.528972
v -0.528972 5.513924 -0.916206
v 0.605314 6.033475 -1.048434
v -0.000000 6.033475 -1.210628
v 1.048434 6.033475 -0.605314
v 1.210628 6.033475 0.000000
v 1.048434 6.033475 0.605314
v 0.605314 6.033475 1.048434
v -0.000000 6.033475 1.210628
v -0.605314 6.033475 1.048434
v -1.048434 6.033475 0.605314
v -1.210628 6.033475 0.000000
v -1.048434 6.033475 -0.605314
v -0.605314 6.033475 -1.048434
v 0.562394 6.515465 -0.974096
v -0.000000 6.515465 -1.124789
v 0.974096 6.515465 -0.562395
v 1.124789 6.515465 0.000000
v 0.562394 6.515465 0.974096
v -0.000000 6.515465 1.124789
v -0.562395 6.515465 0.974096
v -1.124789 6.515465 0.000000
v -0.974096 6.515465 -0.562395
v -0.562395 6.515465 -0.974096
v 0.341964 7.081872 -0.592300
v -0.000000 7.081872 -0.683929
v 0.592300 7.081872 -0.341964
v 0.683929 7.081872 0.000000
v 0.592300 7.081872 0.341964
v -0.592300 7.081872 0.341964
v -0.683929 7.081872 0.000000
v -0.592300 7.081872 -0.341964
v -0.341965 7.081872 -0.592300
v 0.196308 7.430518 -0.340016
v -0.000000 7.430518 -0.392616
v 0.340016 7.430518 -0.196308
v 0.392616 7.430518 -0.000000
v 0.340016 7.430518 0.196308
v 0.196308 7.430518 0.340016
v -0.000000 7.430518 0.392616
v -0.196308 7.430518 0.340016
v -0.340016 7.430518 0.196308
v -0.392617 7.430518 -0.000000
v -0.340016 7.430518 -0.196308
v -0.196308 7.430518 -0.340016
v 0.162668 7.524224 -0.281750
v -0.000000 7.524224 -0.325337
v 0.281750 7.524224 -0.162669
v 0.325337 7.524224 0.000000
v 0.281750 7.524224 0.162669
v 0.162668 7.524224 0.281750
v -0.000000 7.524224 0.325337
v -0.162669 7.524224 0.281750
v -0.281750 7.524224 0.162669
v -0.325337 7.524224 0.000000
v -0.281750 7.524224 -0.162669
v -0.162669 7.524224 -0.281750
v 0.223521 7.710897 -0.387150
v -0.000000 7.710897 -0.447042
v 0.387150 7.710897 -0.223521
v 0.447042 7.710897 0.000000
v 0.387150 7.710897 0.223521
v 0.223521 7.710897 0.387150
v -0.000000 7.710897 0.447042
v -0.223521 7.710897 0.387150
v -0.387150 7.710897 0.223521
v -0.447042 7.710897 0.000000
v -0.387150 7.710897 -0.223521
v -0.223521 7.710897 -0.387150
v 0.223521 7.896570 -0.387150
v -0.000000 7.896570 -0.447042
v 0.387150 7.896570 -0.223521
v 0.447042 7.896570 0.000000
v 0.387150 7.896570 0.223521
v 0.223521 7.896570 0.387150
v -0.000000 7.896570 0.447042
v -0.223521 7.896570 0.387150
v -0.387150 7.896570 0.223521
v -0.447042 7.896570 0.000000
v -0.387150 7.896570 -0.223521
v -0.223521 7.896570 -0.387150
v 0.198434 8.058248 -0.343698
v -0.000000 8.058248 -0.396869
v 0.343698 8.058248 -0.198434
v 0.396868 8.058248 0.000000
v 0.343698 8.058248 0.198434
v 0.198434 8.058248 0.343698
v -0.000000 8.058248 0.396869
v -0.198435 8.058248 0.343698
v -0.343698 8.058248 0.198434
v -0.396869 8.058248 0.000000
v -0.343698 8.058248 -0.198434
v -0.198435 8.058248 -0.343698
v 0.119343 8.219286 -0.206709
v -0.000000 8.219286 -0.238687
v 0.206709 8.219286 -0.119343
v 0.238687 8.219286 0.000000
v 0.206709 8.219286 0.119343
v 0.119343 8.219286 0.206709
v -0.000000 8.219286 0.238687
v -0.119344 8.219286 0.206709
v -0.206709 8.219286 0.119343
v -0.238687 8.219286 0.000000
v -0.206709 8.219286 -0.119343
v -0.119344 8.219286 -0.206709
v 0.500204 6.675268 0.866378
v -0.000000 6.760511 0.934059
v 1.090842 6.300578 0.269515
v 1.132866 6.343305 0.084283
v 0.987338 6.429606 0.570040
v 0.996515 6.411806 0.547621
v 1.112846 6.515465 0.044572
v -0.858311 6.515465 0.678180
v -0.987338 6.429606 0.570040
v 0.858311 6.515465 0.678180
v -0.996516 6.411806 0.547621
v -1.090842 6.300578 0.269515
v -1.132866 6.343305 0.084283
v -1.112846 6.515465 0.044572
v 0.293326 7.198294 0.508056
v -0.000000 7.235809 0.555307
v -0.500204 6.675268 0.866378
v 0.857215 6.806642 0.152784
v 1.103480 6.528537 0.041556
v 0.609017 7.057072 0.351616
v -0.552361 6.647184 0.844081
v -0.562957 7.081872 0.371307
v -0.609017 7.057072 0.351616
v 0.552360 6.647184 0.844081
v 0.562957 7.081872 0.371307
v -1.103480 6.528537 0.041556
v -0.857215 6.806642 0.152784
v -0.293327 7.198294 0.508056
v -0.521869 7.103103 0.388163
v 0.521869 7.103103 0.388163
vn 0.2588 -0.0000 -0.9659
vn 0.7071 -0.0000 -0.7071
vn 0.9659 -0.0000 -0.2588
vn 0.9659 -0.0000 0.2588
vn 0.7071 -0.0000 0.7071
vn 0.2588 -0.0000 0.9659
vn -0.2588 -0.0000 0.9659
vn -0.7071 -0.0000 0.7071
vn -0.9659 -0.0000 0.2588
vn -0.9659 -0.0000 -0.2588
vn -0.2700 0.9242 0.2700
vn -0.7071 -0.0000 -0.7071
vn -0.2588 -0.0000 -0.9659
vn -0.0000 -1.0000 -0.0000
vn -0.0988 0.9242 0.3689
vn 0.0988 0.9242 0.3689
vn 0.2700 0.9242 0.2700
vn 0.3689 0.9242 0.0988
vn -0.0988 0.9242 -0.3689
vn 0.0988 0.9242 -0.3689
vn 0.3689 0.9242 -0.0988
vn -0.2700 0.9242 -0.2700
vn 0.2700 0.9242 -0.2700
vn -0.3689 0.9242 -0.0988
vn -0.3689 0.9242 0.0988
vn -0.7477 0.6331 -0.2003
vn -0.8405 -0.4928 -0.2252
vn -0.2003 0.6331 0.7477
vn 0.7477 0.6331 0.2003
vn -0.5473 0.6331 -0.5473
vn 0.2003 0.6331 -0.7477
vn -0.5473 0.6331 0.5473
vn 0.5473 0.6331 0.5473
vn -0.2003 0.6331 -0.7477
vn 0.5473 0.6331 -0.5473
vn -0.7477 0.6331 0.2003
vn 0.2003 0.6331 0.7477
vn 0.7477 0.6331 -0.2003
vn 0.9292 -0.2731 -0.2490
vn -0.2252 -0.4928 0.8405
vn 0.8405 -0.4928 0.2252
vn -0.6153 -0.4928 -0.6153
vn 0.2252 -0.4928 -0.8405
vn -0.6153 -0.4928 0.6153
vn 0.6153 -0.4928 0.6153
vn -0.2252 -0.4928 -0.8405
vn 0.6153 -0.4928 -0.6153
vn -0.8405 -0.4928 0.2252
vn 0.2252 -0.4928 0.8405
vn 0.8405 -0.4928 -0.2252
vn 0.9519 0.1695 -0.2551
vn -0.9292 -0.2731 -0.2490
vn -0.2490 -0.2731 0.9292
vn 0.9292 -0.2731 0.2490
vn -0.6802 -0.2731 -0.6802
vn 0.2490 -0.2731 -0.9292
vn -0.6802 -0.2731 0.6802
vn 0.6802 -0.2731 0.6802
vn -0.2490 -0.2731 -0.9292
vn 0.6802 -0.2731 -0.6802
vn -0.9292 -0.2731 0.2490
vn 0.2490 -0.2731 0.9292
vn 0.2069 0.6009 0.7721
vn -0.9519 0.1695 -0.2551
vn -0.2551 0.1695 0.9519
vn 0.9519 0.1695 0.2551
vn -0.6969 0.1695 -0.6969
vn 0.2551 0.1695 -0.9519
vn -0.6969 0.1695 0.6969
vn 0.6969 0.1695 0.6969
vn -0.2551 0.1695 -0.9519
vn 0.6969 0.1695 -0.6969
vn -0.9519 0.1695 0.2551
vn 0.2551 0.1695 0.9519
vn 0.2014 0.6281 0.7517
vn 0.7721 0.6009 -0.2069
vn -0.7721 0.6009 -0.2069
vn -0.2069 0.6009 0.7721
vn 0.7721 0.6009 0.2069
vn -0.5652 0.6009 -0.5652
vn 0.2069 0.6009 -0.7721
vn -0.5652 0.6009 0.5652
vn 0.5652 0.6009 0.5652
vn -0.2069 0.6009 -0.7721
vn 0.5652 0.6009 -0.5652
vn -0.7721 0.6009 0.2069
vn -0.7937 0.5699 0.2127
vn 0.7517 0.6281 -0.2014
vn -0.7517 0.6281 -0.2014
vn -0.2014 0.6281 0.7517
vn 0.7517 0.6281 0.2014
vn -0.5503 0.6281 -0.5503
vn 0.2014 0.6281 -0.7517
vn -0.5503 0.6281 0.5503
vn 0.5503 0.6281 0.5503
vn -0.2014 0.6281 -0.7517
vn 0.5503 0.6281 -0.5503
vn -0.7517 0.6281 0.2014
vn 0.5983 -0.5329 -0.5983
vn 0.2127 0.5699 0.7937
vn 0.7937 0.5699 -0.2127
vn -0.7937 0.5699 -0.2127
vn -0.2127 0.5699 0.7937
vn 0.7937 0.5699 0.2127
vn -0.5810 0.5699 -0.5810
vn 0.2127 0.5699 -0.7937
vn -0.5810 0.5699 0.5810
vn 0.5810 0.5699 0.5810
vn -0.2127 0.5699 -0.7937
vn 0.5810 0.5699 -0.5810
vn -0.8174 -0.5329 0.2190
vn 0.2190 -0.5329 0.8174
vn 0.8174 -0.5329 -0.2190
vn -0.8174 -0.5329 -0.2190
vn -0.2190 -0.5329 0.8174
vn 0.8174 -0.5329 0.2190
vn -0.5983 -0.5329 -0.5983
vn 0.2190 -0.5329 -0.8174
vn -0.5983 -0.5329 0.5983
vn 0.5983 -0.5329 0.5983
vn -0.2190 -0.5329 -0.8174
vn 0.6773 0.2871 0.6773
vn 0.5130 0.6883 0.5130
vn -0.2479 0.2871 -0.9253
vn 0.6773 0.2871 -0.6773
vn -0.9253 0.2871 0.2479
vn 0.2479 0.2871 0.9253
vn 0.9253 0.2871 -0.2479
vn -0.9253 0.2871 -0.2479
vn -0.2479 0.2871 0.9253
vn 0.9253 0.2871 0.2479
vn -0.6773 0.2871 -0.6773
vn 0.2479 0.2871 -0.9253
vn -0.6773 0.2871 0.6773
vn -0.0000 1.0000 -0.0000
vn -0.1878 0.6883 -0.7007
vn 0.5130 0.6883 -0.5130
vn -0.7007 0.6883 0.1878
vn 0.1878 0.6883 0.7007
vn 0.7007 0.6883 -0.1878
vn -0.7007 0.6883 -0.1878
vn -0.1878 0.6883 0.7007
vn 0.7007 0.6883 0.1878
vn -0.5130 0.6883 -0.5130
vn 0.1878 0.6883 -0.7007
vn -0.5130 0.6883 0.5130
vn -0.0000 -0.7832 0.6218
vn -0.0000 -0.6218 0.7832
vn -0.0000 -0.3713 0.9285
vn -0.0000 0.2248 0.9744
vn -0.0000 0.9744 0.2248
vn -0.0000 0.9285 -0.3713
vn -0.0000 0.7832 -0.6218
vn -0.0000 0.6218 -0.7832
vt 1.000000 0.500000
vt 1.000000 1.000000
vt 0.916667 1.000000
vt 0.916667 0.500000
vt 0.833333 1.000000
vt 0.833333 0.500000
vt 0.750000 1.000000
vt 0.750000 0.500000
vt 0.666667 1.000000
vt 0.666667 0.500000
vt 0.583333 1.000000
vt 0.583333 0.500000
vt 0.500000 1.000000
vt 0.500000 0.500000
vt 0.416667 1.000000
vt 0.416667 0.500000
vt 0.333333 1.000000
vt 0.333333 0.500000
vt 0.250000 1.000000
vt 0.250000 0.500000
vt 0.166667 1.000000
vt 0.166667 0.500000
vt 0.083333 1.000000
vt 0.083333 0.500000
vt 0.000000 1.000000
vt 0.000000 0.500000
vt 0.630000 0.457846
vt 0.750000 0.490000
vt 0.870000 0.457846
vt 0.957846 0.370000
vt 0.990000 0.250000
vt 0.957846 0.130000
vt 0.870000 0.042154
vt 0.750000 0.010000
vt 0.630000 0.042154
vt 0.542154 0.130000
vt 0.510000 0.250000
vt 0.542154 0.370000
vt 0.743396 1.000000
vt 0.737877 1.000000
vt 0.711381 1.000000
vt 0.670138 1.000000
vt 0.356770 1.000000
vt 0.643230 1.000000
vt 0.329862 1.000000
vt 0.288619 1.000000
vt 0.262123 1.000000
vt 0.256605 1.000000
vt 0.743624 1.000000
vt 0.721673 1.000000
vt 0.407286 1.000000
vt 0.343101 1.000000
vt 0.333333 1.000000
vt 0.656899 1.000000
vt 0.592715 1.000000
vt 0.256377 1.000000
vt 0.278327 1.000000
vt 0.416667 1.000000
vt 0.352435 1.000000
vt 0.647565 1.000000
vt 0.042154 0.130000
vt 0.130000 0.042154
vt 0.250000 0.010000
vt 0.370000 0.042154
vt 0.457846 0.130000
vt 0.490000 0.250000
vt 0.457846 0.370000
vt 0.370000 0.457846
vt 0.250000 0.490000
vt 0.130000 0.457846
vt 0.042154 0.370000
vt 0.010000 0.250000
vt 0.783701 0.793076
vt 0.796983 0.756782
vt 0.783701 0.720489
vt 0.750000 0.692211
vt 0.750000 0.821354
vt 0.744032 0.687128
vt 0.737061 0.681428
vt 0.666667 0.650719
vt 0.666667 0.862846
vt 0.737061 0.832136
vt 0.744032 0.826437
vt 0.583333 0.893317
vt 0.583333 0.620248
vt 0.577453 0.619090
vt 0.500000 0.616612
vt 0.500000 0.896953
vt 0.577453 0.894476
vt 0.416667 0.621812
vt 0.416667 0.891753
vt 0.333333 0.633483
vt 0.333333 0.880082
vt 0.327031 0.878946
vt 0.327031 0.634619
vt 0.296634 0.650583
vt 0.250000 0.688439
vt 0.250000 0.825126
vt 0.296634 0.862982
vt 0.218145 0.756782
vt 0.242106 0.818673
vt 0.242106 0.694892
s 0
f 1/1/1 2/2/1 4/3/1 3/4/1
f 3/4/2 4/3/2 6/5/2 5/6/2
f 5/6/3 6/5/3 8/7/3 7/8/3
f 7/8/4 8/7/4 10/9/4 9/10/4
f 9/10/5 10/9/5 12/11/5 11/12/5
f 11/12/6 12/11/6 14/13/6 13/14/6
f 13/14/7 14/13/7 16/15/7 15/16/7
f 15/16/8 16/15/8 18/17/8 17/18/8
f 17/18/9 18/17/9 20/19/9 19/20/9
f 19/20/10 20/19/10 22/21/10 21/22/10
f 18/17/11 16/15/11 32/15/11 33/17/11
f 21/22/12 22/21/12 24/23/12 23/24/12
f 23/24/13 24/23/13 2/25/13 1/26/13
f 23/27/14 1/28/14 3/29/14 5/30/14 7/31/14 9/32/14 11/33/14 13/34/14 15/35/14 17/36/14 19/37/14 21/38/14
f 32/15/7 31/13/7 43/13/7 44/15/7
f 16/15/15 14/13/15 31/13/15 32/15/15
f 14/13/16 12/11/16 30/11/16 31/13/16
f 12/11/17 10/9/17 29/9/17 30/11/17
f 10/9/18 8/7/18 28/7/18 29/9/18
f 2/25/19 24/23/19 36/23/19 26/25/19
f 4/3/20 2/2/20 26/2/20 25/3/20
f 8/7/21 6/5/21 27/5/21 28/7/21
f 24/23/22 22/21/22 35/21/22 36/23/22
f 6/5/23 4/3/23 25/3/23 27/5/23
f 22/21/24 20/19/24 34/19/24 35/21/24
f 20/19/25 18/17/25 33/17/25 34/19/25
f 47/21/26 46/19/26 58/19/26 59/21/26
f 29/9/4 28/7/4 40/7/4 41/9/4
f 36/23/12 35/21/12 47/21/12 48/23/12
f 25/3/1 26/2/1 38/2/1 37/3/1
f 33/17/8 32/15/8 44/15/8 45/17/8
f 30/11/5 29/9/5 41/9/5 42/11/5
f 26/25/13 36/23/13 48/23/13 38/25/13
f 27/5/2 25/3/2 37/3/2 39/5/2
f 34/19/9 33/17/9 45/17/9 46/19/9
f 31/13/6 30/11/6 42/11/6 43/13/6
f 28/7/3 27/5/3 39/5/3 40/7/3
f 35/21/10 34/19/10 46/19/10 47/21/10
f 59/21/27 58/19/27 70/19/27 71/21/27
f 44/15/28 43/13/28 55/13/28 56/15/28
f 41/9/29 40/7/29 52/7/29 53/9/29
f 48/23/30 47/21/30 59/21/30 60/23/30
f 37/3/31 38/2/31 50/2/31 49/3/31
f 45/17/32 44/15/32 56/15/32 57/17/32
f 42/11/33 41/9/33 53/9/33 54/11/33
f 38/25/34 48/23/34 60/23/34 50/25/34
f 39/5/35 37/3/35 49/3/35 51/5/35
f 46/19/36 45/17/36 57/17/36 58/19/36
f 43/13/37 42/11/37 54/11/37 55/13/37
f 40/7/38 39/5/38 51/5/38 52/7/38
f 64/7/39 63/5/39 75/5/39 76/7/39
f 56/15/40 55/13/40 67/13/40 68/15/40
f 53/9/41 52/7/41 64/7/41 65/9/41
f 60/23/42 59/21/42 71/21/42 72/23/42
f 49/3/43 50/2/43 62/2/43 61/3/43
f 57/17/44 56/15/44 68/15/44 69/17/44
f 54/11/45 53/9/45 65/9/45 66/11/45
f 50/25/46 60/23/46 72/23/46 62/25/46
f 51/5/47 49/3/47 61/3/47 63/5/47
f 58/19/48 57/17/48 69/17/48 70/19/48
f 55/13/49 54/11/49 66/11/49 67/13/49
f 52/7/50 51/5/50 63/5/50 64/7/50
f 76/7/51 75/5/51 87/5/51 88/7/51
f 71/21/52 70/19/52 82/19/52 83/21/52
f 68/15/53 67/13/53 79/13/53 80/15/53
f 65/9/54 64/7/54 76/7/54 77/9/54
f 72/23/55 71/21/55 83/21/55 84/23/55
f 61/3/56 62/2/56 74/2/56 73/3/56
f 69/17/57 68/15/57 80/15/57 81/17/57
f 66/11/58 65/9/58 77/9/58 78/11/58
f 62/25/59 72/23/59 84/23/59 74/25/59
f 63/5/60 61/3/60 73/3/60 75/5/60
f 70/19/61 69/17/61 81/17/61 82/19/61
f 67/13/62 66/11/62 78/11/62 79/13/62
f 90/13/63 89/11/63 176/11/63 177/13/63
f 83/21/64 82/19/64 92/19/64 93/21/64
f 80/15/65 79/13/65 90/13/65 91/15/65
f 180/9/66 77/9/66 76/7/66 88/7/66 182/39/66 179/40/66 178/41/66 181/42/66
f 84/23/67 83/21/67 93/21/67 94/23/67
f 73/3/68 74/2/68 86/2/68 85/3/68
f 81/17/69 80/15/69 91/15/69 183/43/69 184/17/69
f 185/44/70 89/11/70 78/11/70 77/9/70 180/9/70
f 74/25/71 84/23/71 94/23/71 86/25/71
f 75/5/72 73/3/72 85/3/72 87/5/72
f 92/19/73 82/19/73 81/17/73 184/17/73 186/45/73 187/46/73 188/47/73 189/48/73
f 79/13/74 78/11/74 89/11/74 90/13/74
f 190/11/75 109/11/75 110/13/75 191/13/75
f 88/7/76 87/5/76 97/5/76 98/7/76
f 93/21/77 92/19/77 101/19/77 102/21/77
f 192/15/78 91/15/78 90/13/78 177/13/78
f 194/49/79 182/39/79 88/7/79 98/7/79 99/9/79 195/9/79 193/50/79
f 94/23/80 93/21/80 102/21/80 103/23/80
f 85/3/81 86/2/81 96/2/81 95/3/81
f 196/51/82 183/43/82 91/15/82 192/15/82
f 197/52/82 100/17/82 198/53/82
f 99/9/83 200/54/83 195/9/83
f 89/11/83 185/44/83 199/55/83 176/11/83
f 86/25/84 94/23/84 103/23/84 96/25/84
f 87/5/85 85/3/85 95/3/85 97/5/85
f 198/53/86 100/17/86 101/19/86 92/19/86 189/48/86 201/56/86 202/57/86
f 113/19/87 112/17/87 124/17/87 125/19/87
f 98/7/88 97/5/88 106/5/88 107/7/88
f 102/21/89 101/19/89 113/19/89 114/21/89
f 191/13/90 110/13/90 111/15/90 203/58/90
f 99/9/91 98/7/91 107/7/91 108/9/91
f 103/23/92 102/21/92 114/21/92 115/23/92
f 95/3/93 96/2/93 105/2/93 104/3/93
f 203/58/94 111/15/94 112/17/94 100/17/94 197/52/94 204/59/94
f 205/60/95 200/54/95 99/9/95 108/9/95 109/11/95 190/11/95
f 96/25/96 103/23/96 115/23/96 105/25/96
f 97/5/97 95/3/97 104/3/97 106/5/97
f 101/19/98 100/17/98 112/17/98 113/19/98
f 118/5/99 116/3/99 128/3/99 130/5/99
f 110/13/100 109/11/100 121/11/100 122/13/100
f 107/7/101 106/5/101 118/5/101 119/7/101
f 114/21/102 113/19/102 125/19/102 126/21/102
f 111/15/103 110/13/103 122/13/103 123/15/103
f 108/9/104 107/7/104 119/7/104 120/9/104
f 115/23/105 114/21/105 126/21/105 127/23/105
f 104/3/106 105/2/106 117/2/106 116/3/106
f 112/17/107 111/15/107 123/15/107 124/17/107
f 109/11/108 108/9/108 120/9/108 121/11/108
f 105/25/109 115/23/109 127/23/109 117/25/109
f 106/5/110 104/3/110 116/3/110 118/5/110
f 129/25/13 139/23/13 151/23/13 141/25/13
f 125/19/111 124/17/111 136/17/111 137/19/111
f 122/13/112 121/11/112 133/11/112 134/13/112
f 119/7/113 118/5/113 130/5/113 131/7/113
f 126/21/114 125/19/114 137/19/114 138/21/114
f 123/15/115 122/13/115 134/13/115 135/15/115
f 120/9/116 119/7/116 131/7/116 132/9/116
f 127/23/117 126/21/117 138/21/117 139/23/117
f 116/3/118 117/2/118 129/2/118 128/3/118
f 124/17/119 123/15/119 135/15/119 136/17/119
f 121/11/120 120/9/120 132/9/120 133/11/120
f 117/25/121 127/23/121 139/23/121 129/25/121
f 145/11/122 144/9/122 156/9/122 157/11/122
f 130/5/2 128/3/2 140/3/2 142/5/2
f 137/19/9 136/17/9 148/17/9 149/19/9
f 134/13/6 133/11/6 145/11/6 146/13/6
f 131/7/3 130/5/3 142/5/3 143/7/3
f 138/21/10 137/19/10 149/19/10 150/21/10
f 135/15/7 134/13/7 146/13/7 147/15/7
f 132/9/4 131/7/4 143/7/4 144/9/4
f 139/23/12 138/21/12 150/21/12 151/23/12
f 128/3/1 129/2/1 141/2/1 140/3/1
f 136/17/8 135/15/8 147/15/8 148/17/8
f 133/11/5 132/9/5 144/9/5 145/11/5
f 157/11/123 156/9/123 168/9/123 169/11/123
f 141/25/124 151/23/124 163/23/124 153/25/124
f 142/5/125 140/3/125 152/3/125 154/5/125
f 149/19/126 148/17/126 160/17/126 161/19/126
f 146/13/127 145/11/127 157/11/127 158/13/127
f 143/7/128 142/5/128 154/5/128 155/7/128
f 150/21/129 149/19/129 161/19/129 162/21/129
f 147/15/130 146/13/130 158/13/130 159/15/130
f 144/9/131 143/7/131 155/7/131 156/9/131
f 151/23/132 150/21/132 162/21/132 163/23/132
f 140/3/133 141/2/133 153/2/133 152/3/133
f 148/17/134 147/15/134 159/15/134 160/17/134
f 172/61/135 171/62/135 170/63/135 169/64/135 168/65/135 167/66/135 166/67/135 164/68/135 165/69/135 175/70/135 174/71/135 173/72/135
f 153/25/136 163/23/136 175/23/136 165/25/136
f 154/5/137 152/3/137 164/3/137 166/5/137
f 161/19/138 160/17/138 172/17/138 173/19/138
f 158/13/139 157/11/139 169/11/139 170/13/139
f 155/7/140 154/5/140 166/5/140 167/7/140
f 162/21/141 161/19/141 173/19/141 174/21/141
f 159/15/142 158/13/142 170/13/142 171/15/142
f 156/9/143 155/7/143 167/7/143 168/9/143
f 163/23/144 162/21/144 174/21/144 175/23/144
f 152/3/145 153/2/145 165/2/145 164/3/145
f 160/17/146 159/15/146 171/15/146 172/17/146
f 190/73/147 191/74/147 203/75/147 204/76/147 205/77/147
f 204/76/148 197/78/148 198/79/148 202/80/148 193/81/148 195/82/148 200/83/148 205/77/148
f 194/84/149 193/81/149 202/80/149 201/85/149
f 201/85/150 189/86/150 188/87/150 179/88/150 182/89/150 194/84/150
f 187/90/151 178/91/151 179/88/151 188/87/151
f 186/92/152 181/93/152 178/91/152 187/90/152
f 180/94/153 181/93/153 186/92/153 184/95/153 183/96/153 196/97/153 199/98/153 185/99/153
f 177/100/154 176/101/154 199/98/154 196/97/154 192/102/154
