<?xml version="1.0" encoding="UTF-8" standalone="no"?>
<!-- Created with Inkscape (http://www.inkscape.org/) -->

<svg
   width="512"
   height="512"
   viewBox="0 0 512 512"
   version="1.1"
   id="svg1"
   xmlns="http://www.w3.org/2000/svg"
   xmlns:svg="http://www.w3.org/2000/svg">
  <defs
     id="defs1" />
  <g
     id="layer1">
    <rect
       style="fill:#ffffff;stroke-width:1.4"
       id="rect1"
       width="183.26199"
       height="27.709717"
       x="159.96063"
       y="453.43173"
       ry="12.595323" />
    <rect
       style="fill:#ffffff;stroke-width:1.00346"
       id="rect1-2"
       width="159.33087"
       height="16.373924"
       x="171.4957"
       y="433.92374"
       ry="7.4426904" />
    <rect
       style="fill:#ffffff;stroke-width:3.61769"
       id="rect1-2-5"
       width="124.06396"
       height="273.31857"
       x="190.00737"
       y="157.27306"
       ry="88.79705"
       rx="62.031979" />
    <path
       id="path2"
       style="fill:#ffffff;stroke-width:1.4"
       d="m 250.95312,45.34375 a 31.173431,58.568264 0 0 0 -31.16406,58.58008 31.173431,58.568264 0 0 0 31.17578,58.55664 31.173431,58.568264 0 0 0 31.16993,-58.56836 h -31.17383 l 31.17383,-0.0234 A 31.173431,58.568264 0 0 0 280.67969,86.570312 17.003691,25.190653 0 0 1 271.43164,90.685547 17.003691,25.190653 0 0 1 254.42578,65.5 a 17.003691,25.190653 0 0 1 5.0332,-17.886719 31.173431,58.568264 0 0 0 -8.50586,-2.269531 z m 23.45118,20.150391 -2.97461,0.002 h 2.97656 a 31.173431,58.568264 0 0 0 -0.002,-0.002 z" />
    <path
       style="fill:#ffffff;stroke-width:1.4"
       id="path3"
       d="m 258.20418,37.156212 a 7.2423124,8.1869621 0 0 1 -7.2416,8.186962 7.2423124,8.1869621 0 0 1 -7.24302,-8.185355 7.2423124,8.1869621 0 0 1 7.24018,-8.188569 7.2423124,8.1869621 0 0 1 7.24444,8.183748 l -7.24231,0.0032 z" />
  </g>
</svg>
