# This file uses centimeters as units for non-parametric coordinates.

mtllib koro.mtl
g default
v 0.000000 1.301891 -1.111109
v -0.000000 7.496189 -1.111109
v 0.458110 8.177533 -1.111109
v 1.173262 9.000281 -1.111109
v 2.184368 9.408375 -1.111109
v 3.333670 9.282890 -1.111109
v 4.281230 8.608962 -1.111109
v 4.849036 7.599296 -1.111109
v 4.940901 6.467102 -1.111109
v 4.510800 5.208037 -1.111109
v 3.545949 3.763073 -1.111109
v 2.015166 2.238409 -1.111109
v 0.000000 1.301891 1.111111
v 0.000000 7.496188 1.111111
v 0.458110 8.177533 1.111111
v 1.173261 9.000283 1.111111
v 2.184368 9.408376 1.111111
v 3.333670 9.282891 1.111111
v 4.281230 8.608963 1.111111
v 4.849035 7.599296 1.111111
v 4.940901 6.467102 1.111111
v 4.510800 5.208036 1.111111
v 3.545949 3.763072 1.111111
v 2.015166 2.238409 1.111111
v -0.458110 8.177533 -1.111109
v -1.173262 9.000282 -1.111109
v -2.184368 9.408375 -1.111109
v -3.333670 9.282890 -1.111109
v -4.281230 8.608963 -1.111109
v -4.849035 7.599296 -1.111109
v -4.940900 6.467102 -1.111109
v -4.510799 5.208036 -1.111109
v -3.545949 3.763072 -1.111109
v -2.015166 2.238409 -1.111109
v -0.458110 8.177533 1.111111
v -1.173262 9.000281 1.111111
v -2.184368 9.408375 1.111111
v -3.333670 9.282889 1.111111
v -4.281230 8.608962 1.111111
v -4.849036 7.599296 1.111111
v -4.940900 6.467102 1.111111
v -4.510799 5.208037 1.111111
v -3.545949 3.763073 1.111111
v -2.015166 2.238409 1.111111
v -1.375059 8.893668 1.500000
v -2.332952 9.030925 -1.499999
v -3.769442 9.643492 0.000000
v -2.332952 9.030924 1.500000
v -3.264021 8.676239 -1.499999
v -4.843085 8.866043 0.000000
v -3.264021 8.676239 1.500000
v -3.920502 7.922594 -1.499999
v -5.489504 7.710886 0.000000
v -3.920502 7.922594 1.500000
v -4.210735 7.001345 -1.499999
v -5.595823 6.440758 0.000000
v -4.210736 7.001345 1.500000
v -4.071067 6.006630 -1.499999
v -5.111678 5.033251 0.000000
v -4.071067 6.006629 1.500000
v -3.485365 4.863265 -1.499999
v -4.028985 3.396412 0.000000
v -3.485365 4.863265 1.500000
v -2.438736 3.585133 -1.499999
v -2.309617 1.669913 0.000000
v -2.438736 3.585133 1.500000
v -0.898023 2.307276 -1.499999
v -0.898023 2.307276 1.500000
v 0.000000 7.421144 0.000000
v 0.168241 7.505281 1.500000
v 0.493130 8.383937 0.000000
v 0.168241 7.505281 -1.499999
v 0.638186 8.360634 1.500000
v 1.297675 9.309529 0.000000
v 0.638186 8.360634 -1.499999
v 1.375059 8.893668 1.500000
v 2.442822 9.780879 0.000000
v 1.375059 8.893669 -1.499999
v 2.332952 9.030924 1.500000
v 3.769442 9.643492 0.000000
v 2.332952 9.030925 -1.499999
v 3.264021 8.676239 1.500000
v 4.843085 8.866043 0.000000
v 3.264021 8.676240 -1.499999
v 3.920502 7.922594 1.500000
v 5.489504 7.710886 0.000000
v 3.920502 7.922594 -1.499999
v 4.210736 7.001345 1.500000
v 5.595823 6.440758 0.000000
v 4.210736 7.001345 -1.499999
v 4.071067 6.006629 1.500000
v 5.111678 5.033251 0.000000
v 4.071067 6.006629 -1.499999
v 3.485365 4.863265 1.500000
v 4.028985 3.396412 0.000000
v 3.485365 4.863265 -1.499999
v 2.438736 3.585133 1.500000
v 2.309617 1.669913 0.000000
v 2.438736 3.585133 -1.499999
v 0.898023 2.307276 1.500000
v 0.000000 0.414654 0.000000
v 0.898023 2.307276 -1.499999
v -0.168241 7.505281 -1.499999
v -0.493130 8.383937 0.000000
v -0.168241 7.505281 1.500000
v -0.638186 8.360634 -1.499999
v -1.297675 9.309529 0.000000
v -0.638186 8.360634 1.500000
v -1.375059 8.893669 -1.499999
v -2.442822 9.780879 0.000000
v 0.224321 7.759983 0.000000
v 0.850914 8.900453 0.000000
v 1.833412 9.611167 0.000000
v 3.110602 9.794176 0.000000
v 4.352028 9.321261 0.000000
v 5.227336 8.316398 0.000000
v 5.614315 7.088067 0.000000
v 5.428090 5.761780 0.000000
v 4.647152 4.237292 0.000000
v 3.251648 2.533117 0.000000
v 1.197364 0.829307 0.000000
v -0.224321 7.759983 0.000000
v -0.850914 8.900453 0.000000
v -1.833412 9.611168 0.000000
v -3.110602 9.794176 0.000000
v -4.352028 9.321260 0.000000
v -5.227336 8.316398 0.000000
v -5.614315 7.088067 0.000000
v -5.428090 5.761780 0.000000
v -4.647152 4.237292 0.000000
v -3.251648 2.533117 0.000000
v -1.197364 0.829307 0.000000
v 0.000000 6.741182 2.000000
v 0.000000 6.741182 -2.000001
vt 0.286890 0.505350
vt 0.286890 0.505350
vt 0.281266 0.859253
vt 0.281266 0.859253
vt 0.281266 0.926979
vt 0.281266 0.973231
vt 0.114485 0.505350
vt 0.114485 0.563338
vt 0.114485 0.632992
vt 0.286890 0.991521
vt 0.294398 0.926975
vt 0.294398 0.876522
vt 0.294398 0.819946
vt 0.294398 0.757031
vt 0.294398 0.684826
vt 0.286890 0.588231
vt 0.336860 0.505350
vt 0.336860 0.505350
vt 0.231296 0.859253
vt 0.231296 0.859253
vt 0.231296 0.926979
vt 0.231296 0.973231
vt 0.064515 0.505350
vt 0.064515 0.563338
vt 0.064515 0.632992
vt 0.336860 0.991521
vt 0.336860 0.950745
vt 0.318121 0.876522
vt 0.318121 0.819946
vt 0.318121 0.757031
vt 0.318121 0.684826
vt 0.318121 0.608639
vt 0.281266 0.926979
vt 0.281266 0.973231
vt 0.114485 0.505350
vt 0.114485 0.563338
vt 0.114485 0.632992
vt 0.286890 0.991521
vt 0.286890 0.950745
vt 0.294398 0.876522
vt 0.294398 0.819946
vt 0.294398 0.757031
vt 0.294398 0.684826
vt 0.294398 0.608639
vt 0.231296 0.926979
vt 0.231296 0.973231
vt 0.064515 0.505350
vt 0.064515 0.563338
vt 0.064515 0.632992
vt 0.336860 0.991521
vt 0.318121 0.926975
vt 0.318121 0.876522
vt 0.318121 0.819946
vt 0.318121 0.757031
vt 0.318121 0.684826
vt 0.336860 0.588231
vt 0.256281 0.893116
vt 0.256281 0.950105
vt 0.089500 0.534344
vt 0.089500 0.598165
vt 0.311875 0.971133
vt 0.311875 0.920920
vt 0.311875 0.859540
vt 0.311875 0.793266
vt 0.311875 0.717087
vt 0.311875 0.631930
vt 0.311875 0.546790
vt 0.256281 0.893116
vt 0.256281 0.950105
vt 0.089500 0.534344
vt 0.089500 0.598165
vt 0.311875 0.971133
vt 0.311875 0.920920
vt 0.311875 0.859540
vt 0.311875 0.793266
vt 0.311875 0.717087
vt 0.311875 0.631930
vt 0.311875 0.546790
vt 0.268149 0.765127
vt 0.254521 0.765127
vt 0.256281 0.859253
vt 0.256281 0.859253
vt 0.231296 0.893116
vt 0.231296 0.893116
vt 0.256281 0.924295
vt 0.268334 0.861119
vt 0.246756 0.903861
vt 0.256281 0.973231
vt 0.089500 0.505350
vt 0.281266 0.950105
vt 0.197875 0.716165
vt 0.064515 0.534344
vt 0.147906 0.768284
vt 0.089500 0.564796
vt 0.143248 0.592040
vt 0.121670 0.639905
vt 0.089500 0.632992
vt 0.311875 0.991521
vt 0.114485 0.598165
vt 0.200687 0.777429
vt 0.336860 0.971133
vt 0.200687 0.791869
vt 0.311875 0.948386
vt 0.285044 0.919631
vt 0.313436 0.881972
vt 0.311875 0.890662
vt 0.285044 0.881972
vt 0.313436 0.835937
vt 0.311875 0.827194
vt 0.285044 0.835937
vt 0.313436 0.786231
vt 0.311875 0.756861
vt 0.285044 0.786231
vt 0.313436 0.729097
vt 0.311875 0.675069
vt 0.285044 0.729097
vt 0.313436 0.665229
vt 0.311875 0.588795
vt 0.285044 0.665229
vt 0.313436 0.601375
vt 0.311875 0.505350
vt 0.311875 0.505350
vt 0.286890 0.546790
vt 0.286890 0.546790
vt 0.281266 0.893116
vt 0.281266 0.893116
vt 0.256281 0.924295
vt 0.246756 0.861119
vt 0.268334 0.903861
vt 0.256281 0.973231
vt 0.089500 0.505350
vt 0.231296 0.950105
vt 0.147906 0.716165
vt 0.114485 0.534344
vt 0.197875 0.768284
vt 0.089500 0.564796
vt 0.121670 0.592040
vt 0.143248 0.639905
vt 0.089500 0.632992
vt 0.311875 0.991521
vt 0.064515 0.598165
vt 0.200687 0.777429
vt 0.286890 0.971133
vt 0.200687 0.791869
vt 0.311875 0.948386
vt 0.313436 0.919631
vt 0.285044 0.881972
vt 0.311875 0.890662
vt 0.313436 0.881972
vt 0.285044 0.835937
vt 0.311875 0.827194
vt 0.313436 0.835937
vt 0.285044 0.786231
vt 0.311875 0.756861
vt 0.313436 0.786231
vt 0.285044 0.729097
vt 0.311875 0.675069
vt 0.313436 0.729097
vt 0.285044 0.665229
vt 0.311875 0.588795
vt 0.313436 0.665229
vt 0.285044 0.601375
vt 0.336860 0.546790
vt 0.336860 0.546790
vn 0.000001 0.975241 -0.221143
vn 0.000001 1.000000 0.000000
vn -0.886494 0.462740 -0.000000
vn -0.797030 0.552964 -0.242845
vn 0.000000 0.975241 0.221143
vn -0.797030 0.552963 0.242845
vn -0.877326 0.462584 0.127728
vn -0.856382 0.516343 -0.000000
vn -0.877326 0.462585 -0.127728
vn -0.723060 0.690785 -0.000000
vn -0.644578 0.597933 -0.476439
vn -0.644578 0.597933 0.476440
vn -0.562075 0.744903 0.359432
vn -0.506590 0.862187 0.000000
vn -0.562075 0.744903 -0.359432
vn -0.372558 0.928009 -0.000000
vn -0.199200 0.554787 -0.807794
vn -0.199200 0.554786 0.807794
vn -0.131739 0.810847 0.570238
vn -0.012044 0.999928 -0.000000
vn -0.131739 0.810846 -0.570240
vn 0.076027 0.997106 -0.000000
vn 0.056426 0.390958 -0.918677
vn 0.056426 0.390957 0.918678
vn 0.241427 0.664590 0.707130
vn 0.474229 0.880401 -0.000000
vn 0.241427 0.664590 -0.707130
vn 0.547793 0.836614 0.000000
vn 0.177321 0.239936 -0.954457
vn 0.177320 0.239935 0.954457
vn 0.473554 0.420186 0.774074
vn 0.803471 0.595344 0.000000
vn 0.473554 0.420185 -0.774074
vn 0.855192 0.518311 0.000000
vn 0.227253 0.124049 -0.965903
vn 0.227253 0.124049 0.965903
vn 0.578495 0.185176 0.794389
vn 0.964943 0.262461 0.000000
vn 0.578494 0.185176 -0.794389
vn 0.996305 0.085889 0.000000
vn 0.242238 0.019408 -0.970023
vn 0.242238 0.019408 0.970023
vn 0.592824 -0.085734 0.800756
vn 0.993817 -0.111027 -0.000000
vn 0.592824 -0.085734 -0.800756
vn 0.938773 -0.344537 0.000000
vn 0.248031 -0.079949 -0.965448
vn 0.248030 -0.079949 0.965448
vn 0.513245 -0.268590 0.815131
vn 0.906811 -0.421537 -0.000000
vn 0.513245 -0.268590 -0.815131
vn 0.827296 -0.561767 0.000000
vn 0.243013 -0.159051 -0.956895
vn 0.243013 -0.159051 0.956895
vn 0.422808 -0.347916 0.836772
vn 0.777066 -0.629420 0.000000
vn 0.422808 -0.347916 -0.836772
vn 0.714911 -0.699216 0.000000
vn 0.210921 -0.214227 -0.953739
vn 0.210921 -0.214227 0.953740
vn 0.335763 -0.397587 0.853925
vn 0.615510 -0.788129 0.000000
vn 0.335764 -0.397587 -0.853925
vn 0.447581 -0.894243 0.000000
vn 0.111273 -0.262399 -0.958522
vn 0.111273 -0.262398 0.958523
vn 0.000000 -0.501311 0.865267
vn 0.000000 -1.000000 0.000000
vn -0.000000 -0.501311 -0.865267
vn 0.797030 0.552964 -0.242845
vn 0.886494 0.462740 -0.000000
vn 0.877326 0.462585 -0.127728
vn 0.856382 0.516343 -0.000000
vn 0.877326 0.462585 0.127728
vn 0.797031 0.552964 0.242845
vn 0.644579 0.597933 -0.476438
vn 0.723060 0.690785 0.000000
vn 0.562076 0.744903 -0.359431
vn 0.506591 0.862187 0.000000
vn 0.562075 0.744902 0.359432
vn 0.644578 0.597933 0.476440
vn 0.199200 0.554786 -0.807794
vn 0.372558 0.928009 0.000000
vn 0.131738 0.810846 -0.570240
vn 0.012044 0.999928 0.000000
vn 0.131738 0.810846 0.570240
vn 0.199200 0.554786 0.807794
vn -0.056426 0.390957 -0.918678
vn -0.076027 0.997106 0.000001
vn -0.241428 0.664590 -0.707130
vn -0.474230 0.880401 0.000000
vn -0.241428 0.664589 0.707131
vn -0.056426 0.390957 0.918678
vn -0.177321 0.239935 -0.954457
vn -0.547793 0.836614 -0.000000
vn -0.473554 0.420185 -0.774074
vn -0.803471 0.595344 -0.000000
vn -0.473555 0.420185 0.774074
vn -0.177320 0.239935 0.954457
vn -0.227253 0.124049 -0.965903
vn -0.855192 0.518311 -0.000000
vn -0.578494 0.185176 -0.794389
vn -0.964943 0.262461 -0.000000
vn -0.578495 0.185176 0.794389
vn -0.227253 0.124049 0.965903
vn -0.242238 0.019408 -0.970023
vn -0.996305 0.085889 0.000000
vn -0.592824 -0.085734 -0.800756
vn -0.993817 -0.111027 -0.000000
vn -0.592824 -0.085734 0.800756
vn -0.242238 0.019408 0.970023
vn -0.248031 -0.079949 -0.965448
vn -0.938773 -0.344537 -0.000000
vn -0.513245 -0.268590 -0.815132
vn -0.906811 -0.421537 0.000000
vn -0.513245 -0.268590 0.815131
vn -0.248030 -0.079949 0.965448
vn -0.243013 -0.159051 -0.956895
vn -0.827296 -0.561767 0.000000
vn -0.422808 -0.347916 -0.836772
vn -0.777066 -0.629420 0.000000
vn -0.422808 -0.347916 0.836772
vn -0.243013 -0.159051 0.956895
vn -0.210921 -0.214227 -0.953739
vn -0.714911 -0.699215 -0.000000
vn -0.335764 -0.397587 -0.853925
vn -0.615510 -0.788129 -0.000000
vn -0.335764 -0.397587 0.853925
vn -0.210921 -0.214227 0.953740
vn -0.111273 -0.262399 -0.958522
vn -0.447581 -0.894243 -0.000000
vn -0.111273 -0.262398 0.958523
vn 0.000000 -0.040711 0.999171
vn -0.000000 -0.040711 -0.999171
s 1
g polySurface3
usemtl blinn1SG
f 2/3/1 69/81/2 111/57/3 72/86/4
f 69/81/2 14/19/5 70/83/6 111/57/3
f 111/57/3 70/83/6 15/21/7 71/85/8
f 72/86/4 111/57/3 71/85/8 3/5/9
f 3/5/9 71/85/8 112/58/10 75/90/11
f 71/85/8 15/21/7 73/87/12 112/58/10
f 112/58/10 73/87/12 16/22/13 74/88/14
f 75/90/11 112/58/10 74/88/14 4/6/15
f 4/7/15 74/89/14 113/59/16 78/95/17
f 74/89/14 16/23/13 76/92/18 113/59/16
f 113/59/16 76/92/18 17/24/19 77/94/20
f 78/95/17 113/59/16 77/94/20 5/8/21
f 5/8/21 77/94/20 114/60/22 81/99/23
f 77/94/20 17/24/19 79/96/24 114/60/22
f 114/60/22 79/96/24 18/25/25 80/97/26
f 81/99/23 114/60/22 80/97/26 6/9/27
f 6/10/27 80/98/26 115/61/28 84/104/29
f 80/98/26 18/26/25 82/101/30 115/61/28
f 115/61/28 82/101/30 19/27/31 83/103/32
f 84/104/29 115/61/28 83/103/32 7/11/33
f 7/11/33 83/103/32 116/62/34 87/107/35
f 83/103/32 19/27/31 85/105/36 116/62/34
f 116/62/34 85/105/36 20/28/37 86/106/38
f 87/107/35 116/62/34 86/106/38 8/12/39
f 8/12/39 86/106/38 117/63/40 90/110/41
f 86/106/38 20/28/37 88/108/42 117/63/40
f 117/63/40 88/108/42 21/29/43 89/109/44
f 90/110/41 117/63/40 89/109/44 9/13/45
f 9/13/45 89/109/44 118/64/46 93/113/47
f 89/109/44 21/29/43 91/111/48 118/64/46
f 118/64/46 91/111/48 22/30/49 92/112/50
f 93/113/47 118/64/46 92/112/50 10/14/51
f 10/14/51 92/112/50 119/65/52 96/116/53
f 92/112/50 22/30/49 94/114/54 119/65/52
f 119/65/52 94/114/54 23/31/55 95/115/56
f 96/116/53 119/65/52 95/115/56 11/15/57
f 11/15/57 95/115/56 120/66/58 99/119/59
f 95/115/56 23/31/55 97/117/60 120/66/58
f 120/66/58 97/117/60 24/32/61 98/118/62
f 99/119/59 120/66/58 98/118/62 12/16/63
f 12/16/63 98/118/62 121/67/64 102/123/65
f 98/118/62 24/32/61 100/120/66 121/67/64
f 121/67/64 100/120/66 13/17/67 101/121/68
f 102/123/65 121/67/64 101/121/68 1/1/69
f 2/4/1 103/125/70 122/68/71 69/82/2
f 103/125/70 25/33/72 104/127/73 122/68/71
f 122/68/71 104/127/73 35/45/74 105/128/75
f 69/82/2 122/68/71 105/128/75 14/20/5
f 25/33/72 106/129/76 123/69/77 104/127/73
f 106/129/76 26/34/78 107/130/79 123/69/77
f 123/69/77 107/130/79 36/46/80 108/132/81
f 104/127/73 123/69/77 108/132/81 35/45/74
f 26/35/78 109/134/82 124/70/83 107/131/79
f 109/134/82 27/36/84 110/136/85 124/70/83
f 124/70/83 110/136/85 37/48/86 45/137/87
f 107/131/79 124/70/83 45/137/87 36/47/80
f 27/36/84 46/138/88 125/71/89 110/136/85
f 46/138/88 28/37/90 47/139/91 125/71/89
f 125/71/89 47/139/91 38/49/92 48/141/93
f 110/136/85 125/71/89 48/141/93 37/48/86
f 28/38/90 49/143/94 126/72/95 47/140/91
f 49/143/94 29/39/96 50/145/97 126/72/95
f 126/72/95 50/145/97 39/51/98 51/146/99
f 47/140/91 126/72/95 51/146/99 38/50/92
f 29/39/96 52/147/100 127/73/101 50/145/97
f 52/147/100 30/40/102 53/148/103 127/73/101
f 127/73/101 53/148/103 40/52/104 54/149/105
f 50/145/97 127/73/101 54/149/105 39/51/98
f 30/40/102 55/150/106 128/74/107 53/148/103
f 55/150/106 31/41/108 56/151/109 128/74/107
f 128/74/107 56/151/109 41/53/110 57/152/111
f 53/148/103 128/74/107 57/152/111 40/52/104
f 31/41/108 58/153/112 129/75/113 56/151/109
f 58/153/112 32/42/114 59/154/115 129/75/113
f 129/75/113 59/154/115 42/54/116 60/155/117
f 56/151/109 129/75/113 60/155/117 41/53/110
f 32/42/114 61/156/118 130/76/119 59/154/115
f 61/156/118 33/43/120 62/157/121 130/76/119
f 130/76/119 62/157/121 43/55/122 63/158/123
f 59/154/115 130/76/119 63/158/123 42/54/116
f 33/43/120 64/159/124 131/77/125 62/157/121
f 64/159/124 34/44/126 65/160/127 131/77/125
f 131/77/125 65/160/127 44/56/128 66/161/129
f 62/157/121 131/77/125 66/161/129 43/55/122
f 34/44/126 67/162/130 132/78/131 65/160/127
f 67/162/130 1/2/69 101/122/68 132/78/131
f 132/78/131 101/122/68 13/18/67 68/163/132
f 65/160/127 132/78/131 68/163/132 44/56/128
f 14/20/5 105/128/75 133/79/133 70/84/6
f 35/45/74 108/133/81 133/79/133 105/128/75
f 36/47/80 45/137/87 133/79/133 108/133/81
f 37/48/86 48/142/93 133/79/133 45/137/87
f 38/50/92 51/146/99 133/79/133 48/142/93
f 39/51/98 54/149/105 133/79/133 51/146/99
f 40/52/104 57/152/111 133/79/133 54/149/105
f 41/53/110 60/155/117 133/79/133 57/152/111
f 42/54/116 63/158/123 133/79/133 60/155/117
f 43/55/122 66/161/129 133/79/133 63/158/123
f 44/56/128 68/164/132 133/79/133 66/161/129
f 13/17/67 100/120/66 133/79/133 68/164/132
f 24/32/61 97/117/60 133/79/133 100/120/66
f 23/31/55 94/114/54 133/79/133 97/117/60
f 22/30/49 91/111/48 133/79/133 94/114/54
f 21/29/43 88/108/42 133/79/133 91/111/48
f 20/28/37 85/105/36 133/79/133 88/108/42
f 19/27/31 82/102/30 133/79/133 85/105/36
f 18/25/25 79/96/24 133/79/133 82/102/30
f 17/24/19 76/93/18 133/79/133 79/96/24
f 16/22/13 73/87/12 133/79/133 76/93/18
f 15/21/7 70/84/6 133/79/133 73/87/12
f 11/15/57 99/119/59 134/80/134 96/116/53
f 12/16/63 102/124/65 134/80/134 99/119/59
f 1/2/69 67/162/130 134/80/134 102/124/65
f 34/44/126 64/159/124 134/80/134 67/162/130
f 33/43/120 61/156/118 134/80/134 64/159/124
f 32/42/114 58/153/112 134/80/134 61/156/118
f 31/41/108 55/150/106 134/80/134 58/153/112
f 30/40/102 52/147/100 134/80/134 55/150/106
f 29/39/96 49/144/94 134/80/134 52/147/100
f 28/37/90 46/138/88 134/80/134 49/144/94
f 27/36/84 109/135/82 134/80/134 46/138/88
f 26/34/78 106/129/76 134/80/134 109/135/82
f 25/33/72 103/126/70 134/80/134 106/129/76
f 2/3/1 72/86/4 134/80/134 103/126/70
f 3/5/9 75/91/11 134/80/134 72/86/4
f 4/7/15 78/95/17 134/80/134 75/91/11
f 5/8/21 81/100/23 134/80/134 78/95/17
f 6/10/27 84/104/29 134/80/134 81/100/23
f 7/11/33 87/107/35 134/80/134 84/104/29
f 8/12/39 90/110/41 134/80/134 87/107/35
f 9/13/45 93/113/47 134/80/134 90/110/41
f 10/14/51 96/116/53 134/80/134 93/113/47
